<svg xmlns="http://www.w3.org/2000/svg" xmlns:xlink="http://www.w3.org/1999/xlink" fill="#FFFFFF" height="800px" width="800px" version="1.1" id="Layer_1" viewBox="0 0 456.667 456.667" xml:space="preserve">
<g>
	<g>
		<g>
			<circle cx="122.085" cy="75.677" r="34.933"/>
			<path d="M373.525,276.075H262.07l-3.199,16.516c-0.468,2.418,0.169,4.918,1.735,6.819c1.567,1.901,3.902,3.01,6.365,3.01     c3.195,0,7.043,0,11.333,0v95.334c0,9.843,7.979,17.823,17.823,17.823c9.843,0,17.823-7.979,17.823-17.823V302.42     c2.562,0,5.133,0,7.695,0v95.334c0,9.843,7.98,17.823,17.823,17.823c9.843,0,17.823-7.979,17.823-17.823V302.42     c4.291,0,8.139,0,11.333,0c2.465,0,4.8-1.102,6.368-3.004c1.568-1.902,2.201-4.405,1.733-6.825L373.525,276.075z"/>
			<path d="M81.68,397.754c0,10.034,8.134,18.169,18.169,18.169c10.035,0,18.168-8.134,18.168-18.169V276.075H81.68V397.754z"/>
			<path d="M125.861,397.754c0,10.034,8.134,18.169,18.168,18.169s18.169-8.134,18.169-18.169V276.075h-36.337V397.754z"/>
			<path d="M269.129,87.789c5.906,0,11.064-3.146,13.932-7.844c1.845,17.556,16.692,31.24,34.737,31.24     c18.045,0,32.892-13.683,34.737-31.24c2.867,4.698,8.025,7.844,13.932,7.844c9.018,0,15.915,0.827,22.115,15.295     c11.574-22.973-7.854-47.951-22.115-47.951c-7.04,0-13.021,4.464-15.314,10.708c-4.43-14.208-17.688-24.522-33.354-24.522     c-15.667,0-28.924,10.314-33.354,24.522c-2.293-6.245-8.275-10.708-15.314-10.708c-14.261,0-33.69,24.979-22.115,47.951     C253.214,88.615,260.111,87.789,269.129,87.789z"/>
			<path d="M441.668,228.742c-6.148,0-51.124,0-57.552,0c2.971-0.91,5.636-2.702,7.575-5.223c2.872-3.733,3.843-8.591,2.626-13.142     c-2.805-10.49-10.627-40.991-11.818-51.31c-2.273-19.695-17.3-33.989-35.73-33.989c-6.73,0-51.287,0-57.946,0     c-18.43,0-33.456,14.294-35.729,33.99c-1.2,10.394-9.108,41.175-11.817,51.309c-1.217,4.551-0.246,9.409,2.626,13.142     c1.939,2.521,4.603,4.313,7.575,5.223c-44.634,0-17.236,0-63.141,0c2.606-0.806,4.977-2.299,6.83-4.377     c2.879-3.228,4.24-7.534,3.74-11.83c-0.711-6.102-5.382-46.19-6.148-52.762c-0.604-19.218-16.473-34.696-35.812-34.696     c-14.576,0-55.973,0-69.946,0c-19.338,0-35.208,15.478-35.812,34.695c-0.766,6.571-5.436,46.66-6.147,52.763     c-0.501,4.296,0.86,8.602,3.74,11.83c1.853,2.078,4.224,3.571,6.83,4.377c-22.766,0-17.79,0-40.612,0c-8.284,0-15,6.716-15,15     s6.716,15,15,15h426.667c8.284,0,15-6.716,15-15C456.668,235.458,449.952,228.742,441.668,228.742z M111.949,228.742     c4.653-1.335,8.374-4.835,10.026-9.342c1.651,4.507,5.373,8.007,10.025,9.342H111.949z M136.209,199.058c-0.01,0-0.019,0-0.028,0     c-6.529,0-12.08,4.143-14.204,9.94c-2.109-5.758-7.623-9.94-14.232-9.94c-7.76,0.014-22.911,0.042-30.651,0.056     c3.81-32.721,4.579-40.757,4.579-40.757v25.893l30.047-0.051c0.017,0,0.035,0,0.052,0c3.583,0,7.018,0.63,10.204,1.783     c3.186-1.152,6.62-1.783,10.203-1.783c0.018,0,0.034,0,0.052,0l29.639,0.05v-25.893l4.99,40.758L136.209,199.058z      M307.771,228.742c4.653-1.335,8.375-4.835,10.026-9.342c1.651,4.507,5.373,8.007,10.025,9.342H307.771z M332.031,199.059     c-0.01,0-0.018,0-0.028,0c-6.529,0-12.08,4.143-14.203,9.94c-2.109-5.758-7.623-9.94-14.232-9.94     c-6.693,0.012-11.047,0.02-28.126,0.052c1.169-4.721,2.408-9.854,3.551-14.863l28.55-0.049c0.017,0,0.035,0,0.052,0     c3.582,0,7.018,0.63,10.204,1.783c3.185-1.152,6.62-1.783,10.203-1.783c0.018,0,0.034,0,0.052,0l28.549,0.049     c1.143,5.008,2.382,10.142,3.553,14.863L332.031,199.059z"/>
		</g>
	</g>
</g>
</svg>